<svg viewBox="0 0 68 74" fill="none" xmlns="http://www.w3.org/2000/svg">
    <path d="M42.6992 0.111298C45.4917 -0.169786 47.8212 0.0814338 49.7207 0.86618C51.6783 1.67497 53.0007 2.9789 53.8232 4.44821C54.3132 5.32341 54.6057 6.25058 54.7812 7.11227C54.799 7.18165 54.8162 7.25188 54.8291 7.32321C54.8655 7.52496 54.8946 7.72688 54.9189 7.92575C54.9494 8.15847 54.9709 8.38274 54.9873 8.59567C55.5808 8.93574 56.1332 9.39391 56.6553 9.93649C57.5509 10.8675 58.5154 12.2082 59.6025 14.1035C60.7208 16.0531 61.1063 18.0751 60.6309 20.041C60.1742 21.9288 59.0194 23.3614 57.8438 24.4023C56.9571 25.1874 55.9299 25.8551 54.9082 26.4199C55.0062 26.5218 55.1043 26.6256 55.2031 26.7304C55.231 26.76 55.2592 26.7895 55.2871 26.8193C55.7565 27.3199 56.2347 27.8528 56.7158 28.414C56.7575 28.4626 56.7991 28.5115 56.8408 28.5605C57.056 28.8135 57.2715 29.0722 57.4873 29.3359C57.5224 29.3788 57.5577 29.4216 57.5928 29.4648C58.1651 30.1688 58.7383 30.9083 59.3008 31.6777C59.3545 31.7511 59.4063 31.8262 59.46 31.9004C59.511 31.9709 59.5624 32.0412 59.6133 32.1123C60.2888 33.0556 60.9584 34.0556 61.6055 35.1015C61.677 35.2171 61.7486 35.3328 61.8193 35.4492C61.9047 35.5897 61.9898 35.7309 62.0742 35.873C62.1384 35.981 62.2021 36.0895 62.2656 36.1982C63.9906 39.1517 65.4952 42.4274 66.3994 45.8242C68.1797 52.5121 67.2943 58.9739 63.1748 64.0254C59.1183 68.9996 52.3315 72.1051 43.3223 73.0791C42.0983 73.2114 40.7926 73.341 39.4268 73.459C39.2584 73.4735 39.0891 73.4888 38.9189 73.5029C38.6981 73.5212 38.4757 73.5372 38.252 73.5547C37.9401 73.5789 37.6256 73.6036 37.3086 73.6259C37.1374 73.638 36.9655 73.6487 36.793 73.6601C36.4184 73.6849 36.0407 73.709 35.6602 73.7304C35.4607 73.7417 35.2605 73.7505 35.0596 73.7607C34.7268 73.7776 34.3921 73.7948 34.0557 73.8086C33.5781 73.8281 33.0971 73.8448 32.6133 73.8574C32.5625 73.8587 32.5118 73.861 32.4609 73.8623C32.2673 73.867 32.0733 73.8705 31.8789 73.874C31.7735 73.8759 31.6681 73.8774 31.5625 73.8789C31.3769 73.8815 31.1911 73.8833 31.0049 73.8847C30.9184 73.8854 30.8318 73.8863 30.7451 73.8867C30.554 73.8876 30.3626 73.8872 30.1709 73.8867C30.0733 73.8865 29.9756 73.8863 29.8779 73.8857C29.6867 73.8845 29.4953 73.8834 29.3037 73.8808C29.2181 73.8797 29.1325 73.8774 29.0469 73.8759C28.8429 73.8725 28.6388 73.8684 28.4346 73.8633C28.3259 73.8605 28.2172 73.8577 28.1084 73.8545C27.9584 73.85 27.8083 73.8452 27.6582 73.8398C27.5111 73.8345 27.364 73.8285 27.2168 73.8222C27.0638 73.8157 26.9108 73.8093 26.7578 73.8017C26.596 73.7937 26.4342 73.7845 26.2725 73.7754C26.1676 73.7694 26.0628 73.7633 25.958 73.7568C25.7392 73.7433 25.5204 73.7287 25.3018 73.7129C25.235 73.708 25.1683 73.7033 25.1016 73.6982C24.8986 73.6828 24.6958 73.6659 24.4932 73.6484C24.3935 73.6398 24.2939 73.6321 24.1943 73.623C23.987 73.604 23.7801 73.5828 23.5732 73.5615C23.5039 73.5544 23.4345 73.5484 23.3652 73.541C23.1464 73.5176 22.9281 73.4918 22.71 73.4658C22.6354 73.4569 22.5608 73.4486 22.4863 73.4394C21.9934 73.3784 21.5026 73.3099 21.0146 73.2343C20.9271 73.2208 20.8394 73.2084 20.752 73.1943C20.6537 73.1785 20.556 73.1599 20.458 73.1435C19.9975 73.0664 19.5393 72.9849 19.085 72.8935C18.5403 72.784 18.0005 72.6644 17.4668 72.5332C17.4506 72.5292 17.4341 72.5245 17.418 72.5205C17.3713 72.5089 17.3249 72.4961 17.2783 72.4843C17.0585 72.4291 16.8389 72.3729 16.6201 72.3134C16.6085 72.3103 16.5966 72.3078 16.585 72.3047C16.3887 72.2511 16.1934 72.1938 15.998 72.1367C15.945 72.1212 15.8918 72.1065 15.8389 72.0908C15.6899 72.0465 15.5418 71.9995 15.3936 71.9531C15.262 71.9119 15.13 71.872 14.999 71.8291C14.8845 71.7916 14.7712 71.7507 14.6572 71.7119C14.5043 71.6598 14.3512 71.6081 14.1992 71.5537C14.0795 71.5108 13.9609 71.4653 13.8418 71.4209C13.7012 71.3685 13.5606 71.3163 13.4209 71.2617C13.2836 71.208 13.1471 71.1524 13.0107 71.0966C12.8914 71.0478 12.7719 70.9996 12.6533 70.9492C12.5208 70.8928 12.3894 70.8339 12.2578 70.7754C12.1224 70.7151 11.9868 70.6552 11.8525 70.5927C11.7478 70.544 11.644 70.4934 11.54 70.4433C11.3953 70.3736 11.2507 70.3039 11.1074 70.2314C10.9091 70.1311 10.712 70.0285 10.5166 69.9228C10.5006 69.9142 10.4847 69.9052 10.4688 69.8965C10.2401 69.7721 10.0133 69.6446 9.78906 69.5127C9.35155 69.2551 8.92278 68.9829 8.50391 68.6953C8.47339 68.6743 8.44252 68.6539 8.41211 68.6328C8.34061 68.5831 8.27013 68.532 8.19922 68.4814C7.83426 68.2212 7.47717 67.9491 7.12891 67.664C6.88824 67.467 6.651 67.2649 6.41895 67.0556C6.3335 66.9786 6.24926 66.9 6.16504 66.8213C6.1462 66.8036 6.12718 66.7862 6.1084 66.7685C6.03911 66.7032 5.97078 66.6368 5.90234 66.5703C5.87907 66.5477 5.85521 66.5256 5.83203 66.5029C5.82227 66.4933 5.81248 66.4832 5.80273 66.4736C5.63763 66.3108 5.47529 66.1444 5.31543 65.9746C5.27833 65.9352 5.24086 65.8961 5.2041 65.8564C5.12317 65.7689 5.04338 65.6801 4.96387 65.5908C4.95405 65.5798 4.94436 65.5686 4.93457 65.5576C4.91895 65.5399 4.90228 65.5226 4.88672 65.5049C4.74875 65.3478 4.61404 65.188 4.48145 65.0263C4.43127 64.9652 4.38145 64.9036 4.33203 64.8418C4.2953 64.7958 4.25896 64.7495 4.22266 64.7031C4.1786 64.6468 4.13523 64.59 4.0918 64.5332C4.04283 64.4691 3.99444 64.4046 3.94629 64.3398C3.90813 64.2885 3.86969 64.2373 3.83203 64.1855C3.78334 64.1186 3.73533 64.0511 3.6875 63.9834C3.64896 63.9288 3.61025 63.8743 3.57227 63.8193C3.53008 63.7582 3.48876 63.6964 3.44727 63.6347C3.41047 63.58 3.37414 63.5249 3.33789 63.4697C3.2904 63.3974 3.24283 63.325 3.19629 63.2519C3.16842 63.2081 3.14081 63.1642 3.11328 63.1201C3.05992 63.0347 3.00715 62.9488 2.95508 62.8623C2.93244 62.8247 2.9101 62.7868 2.8877 62.749C2.83476 62.6596 2.78204 62.57 2.73047 62.4795C2.71201 62.4471 2.69406 62.4144 2.67578 62.3818C2.55025 62.1583 2.42869 61.9315 2.31152 61.7011C2.28516 61.6493 2.25934 61.5971 2.2334 61.5449C2.1944 61.4664 2.15522 61.3879 2.11719 61.3086C2.08412 61.2396 2.05188 61.1701 2.01953 61.1006C1.98618 61.0288 1.95248 60.9571 1.91992 60.8847C1.89316 60.8253 1.86803 60.765 1.8418 60.705C1.80503 60.6211 1.76813 60.537 1.73242 60.4521C1.7163 60.4138 1.70048 60.3754 1.68457 60.3369C1.64862 60.2499 1.612 60.163 1.57715 60.0752C1.53948 59.9802 1.50416 59.8841 1.46777 59.7881C1.4522 59.7469 1.43526 59.7063 1.41992 59.665C1.38641 59.5748 1.35465 59.4837 1.32227 59.3925C1.24784 59.183 1.17577 58.9712 1.10742 58.7568C1.07925 58.6685 1.05253 58.5794 1.02539 58.4902C1.00762 58.4318 0.98998 58.3732 0.972656 58.3144C0.659023 57.2506 0.418254 56.1269 0.254883 54.9414C0.244422 54.8655 0.234433 54.7893 0.224609 54.7129C0.210108 54.6001 0.194748 54.4869 0.181641 54.373C0.145429 54.0584 0.114351 53.7398 0.0888672 53.417C0.0883828 53.4108 0.0893135 53.4045 0.0888672 53.3984C0.0305349 52.6532 1.08294e-05 51.886 0 51.0966C0 41.1006 5.54204 33.731 12.0059 28.665C17.3946 24.4417 23.63 21.6402 28.5186 20.0195C28.6441 19.9778 28.7687 19.9366 28.8926 19.8965C28.9334 19.8832 28.974 19.8695 29.0146 19.8564C29.0873 14.9168 29.4733 10.5398 31.0938 7.18747C32.0835 5.14006 33.5323 3.45345 35.5703 2.23239C37.5611 1.03966 39.951 0.387957 42.6992 0.111298Z" fill="#66483D"/>
    <path d="M3 51C3 33.4938 22.283 24.6524 32 22C32 10.064 33.1183 3.99467 43 3.00001C52.8817 2.00534 52 9.008 52 10.5C52 11.992 52.9094 8.36836 57 15.5C60.2447 21.1569 53.1724 24.0156 49.5912 25.4631L49.5 25.5C53.0524 27.9867 60.9581 36.9512 63.5 46.5C66.6774 58.436 60.089 68.1525 43 70C28 71.6216 3 72.8827 3 51Z" fill="#FFC37A"/>
    <path d="M51.877 7.75977C52.0912 8.94646 52 10.0146 52 10.5C52 11.992 52.9094 8.36836 57 15.5C60.2447 21.1569 53.1724 24.0156 49.5912 25.4631L49.5 25.5C53.0524 27.9867 60.9581 36.9512 63.5 46.5C66.6774 58.436 60.089 68.1525 43 70C28.4934 71.5683 4.63395 72.7993 3.08008 53.085C7.637 57.9765 12.5 64 30 64C47.5 64 52.4901 55.8921 53 44C53.3109 36.7504 48 29 45.5 27C43 25 52 21 53 19.5C54 18 54 11.4575 49.5908 13.5C45.1816 15.5425 51 10 51.877 7.75977Z" fill="#EFA55D"/>
    <path d="M32.0283 19.1527C39.177 20.7549 45.1689 22.4258 50.0186 25.2885C49.8713 25.3484 49.729 25.4074 49.5912 25.4631L49.5 25.5C52.0303 27.2713 56.7681 32.3299 60.2041 38.5443C60.0094 38.863 59.7251 39.132 59.3633 39.3051C58.367 39.7814 57.172 39.3598 56.6953 38.3636C55.3148 35.4771 53.6374 33.2048 51.584 31.3529C52.5187 33.5898 53 36.2699 53 39.5004C52.9998 40.6048 52.1044 41.5004 51 41.5004C49.8956 41.5004 49.0002 40.6048 49 39.5004C49 35.7578 48.27 33.247 47.1611 31.4623C46.058 29.6872 44.4609 28.439 42.375 27.4242C40.248 26.3894 37.7333 25.6515 34.8438 24.8304C32.936 24.2884 30.8862 23.7113 28.7949 22.9965C29.9411 22.6 31.0191 22.2678 32 22C32 21.0107 32.0086 20.0618 32.0283 19.1527Z" fill="#D53D2F"/>
    <path d="M22.5 37.5C25.9841 36.1107 28.5 32 29.5 32C30.5 32 31.0206 36.7802 33 39C35.4417 41.7381 40.9999 42 40.9999 43.5C41 45 35.1843 45.8439 33.5 49.5C32.1087 52.5201 33.9999 57.5 32.4999 58.5C31 59.5 27.7211 54.4921 23.9999 53.5C20.2065 52.4886 15.447 57.3556 14.4999 56.5C13.5528 55.6444 17.4397 49.0658 16.4999 45.5C15.6975 42.4555 12.9999 40.5 13.4999 39.5C13.9999 38.5 19.3954 38.738 22.5 37.5Z" fill="#66483D"/>
</svg>